<mxfile host="app.diagrams.net" modified="2022-11-05T03:25:05.305Z" agent="5.0 (Windows NT 10.0; Win64; x64) AppleWebKit/537.36 (KHTML, like Gecko) Chrome/107.0.0.0 Safari/537.36" etag="QpE9FuWRJHX5WV5EWAu_" version="20.5.2" type="github">
  <diagram id="qL3x93CHv3Mfj1h6-q1z" name="Page-1">
    <mxGraphModel dx="1422" dy="798" grid="1" gridSize="10" guides="1" tooltips="1" connect="1" arrows="1" fold="1" page="1" pageScale="1" pageWidth="850" pageHeight="1100" math="0" shadow="0">
      <root>
        <mxCell id="0" />
        <mxCell id="1" parent="0" />
        <mxCell id="V00eZw-TxfqV2xNfMcoA-3" value="" style="edgeStyle=orthogonalEdgeStyle;rounded=0;orthogonalLoop=1;jettySize=auto;html=1;fontSize=24;startArrow=none;" parent="1" source="V00eZw-TxfqV2xNfMcoA-17" target="V00eZw-TxfqV2xNfMcoA-2" edge="1">
          <mxGeometry relative="1" as="geometry" />
        </mxCell>
        <mxCell id="V00eZw-TxfqV2xNfMcoA-19" value="" style="edgeStyle=orthogonalEdgeStyle;rounded=0;orthogonalLoop=1;jettySize=auto;html=1;fontSize=24;" parent="1" source="V00eZw-TxfqV2xNfMcoA-1" target="V00eZw-TxfqV2xNfMcoA-17" edge="1">
          <mxGeometry relative="1" as="geometry" />
        </mxCell>
        <mxCell id="V00eZw-TxfqV2xNfMcoA-1" value="&lt;font style=&quot;font-size: 24px;&quot;&gt;start&lt;/font&gt;" style="ellipse;whiteSpace=wrap;html=1;" parent="1" vertex="1">
          <mxGeometry x="380" width="120" height="40" as="geometry" />
        </mxCell>
        <mxCell id="V00eZw-TxfqV2xNfMcoA-32" value="yes" style="edgeStyle=orthogonalEdgeStyle;rounded=0;orthogonalLoop=1;jettySize=auto;html=1;fontSize=24;startArrow=none;" parent="1" source="V00eZw-TxfqV2xNfMcoA-6" target="V00eZw-TxfqV2xNfMcoA-10" edge="1">
          <mxGeometry relative="1" as="geometry">
            <Array as="points">
              <mxPoint x="610" y="370" />
            </Array>
          </mxGeometry>
        </mxCell>
        <mxCell id="V00eZw-TxfqV2xNfMcoA-2" value="&lt;font style=&quot;font-size: 24px;&quot;&gt;n&lt;/font&gt;" style="shape=parallelogram;perimeter=parallelogramPerimeter;whiteSpace=wrap;html=1;fixedSize=1;" parent="1" vertex="1">
          <mxGeometry x="380" y="180" width="120" height="60" as="geometry" />
        </mxCell>
        <mxCell id="V00eZw-TxfqV2xNfMcoA-36" value="" style="edgeStyle=orthogonalEdgeStyle;rounded=0;orthogonalLoop=1;jettySize=auto;html=1;fontSize=24;" parent="1" source="V00eZw-TxfqV2xNfMcoA-10" target="V00eZw-TxfqV2xNfMcoA-34" edge="1">
          <mxGeometry relative="1" as="geometry" />
        </mxCell>
        <mxCell id="V00eZw-TxfqV2xNfMcoA-10" value="xi" style="shape=parallelogram;perimeter=parallelogramPerimeter;whiteSpace=wrap;html=1;fixedSize=1;fontSize=24;" parent="1" vertex="1">
          <mxGeometry x="550" y="390" width="120" height="60" as="geometry" />
        </mxCell>
        <mxCell id="V00eZw-TxfqV2xNfMcoA-17" value="i = 0" style="rounded=0;whiteSpace=wrap;html=1;fontSize=24;" parent="1" vertex="1">
          <mxGeometry x="380" y="80" width="120" height="60" as="geometry" />
        </mxCell>
        <mxCell id="V00eZw-TxfqV2xNfMcoA-42" style="edgeStyle=orthogonalEdgeStyle;rounded=0;orthogonalLoop=1;jettySize=auto;html=1;entryX=1;entryY=0.5;entryDx=0;entryDy=0;fontSize=24;" parent="1" source="V00eZw-TxfqV2xNfMcoA-26" target="V00eZw-TxfqV2xNfMcoA-6" edge="1">
          <mxGeometry relative="1" as="geometry" />
        </mxCell>
        <mxCell id="V00eZw-TxfqV2xNfMcoA-26" value="&lt;font style=&quot;font-size: 24px;&quot;&gt;i++&lt;/font&gt;" style="whiteSpace=wrap;html=1;" parent="1" vertex="1">
          <mxGeometry x="700" y="200" width="120" height="60" as="geometry" />
        </mxCell>
        <mxCell id="V00eZw-TxfqV2xNfMcoA-40" style="edgeStyle=orthogonalEdgeStyle;rounded=0;orthogonalLoop=1;jettySize=auto;html=1;entryX=0.5;entryY=1;entryDx=0;entryDy=0;fontSize=24;" parent="1" source="V00eZw-TxfqV2xNfMcoA-34" target="V00eZw-TxfqV2xNfMcoA-26" edge="1">
          <mxGeometry relative="1" as="geometry" />
        </mxCell>
        <mxCell id="V00eZw-TxfqV2xNfMcoA-34" value="yi" style="shape=parallelogram;perimeter=parallelogramPerimeter;whiteSpace=wrap;html=1;fixedSize=1;fontSize=24;" parent="1" vertex="1">
          <mxGeometry x="700" y="390" width="120" height="60" as="geometry" />
        </mxCell>
        <mxCell id="V00eZw-TxfqV2xNfMcoA-44" value="no" style="edgeStyle=orthogonalEdgeStyle;rounded=0;orthogonalLoop=1;jettySize=auto;html=1;fontSize=24;" parent="1" source="V00eZw-TxfqV2xNfMcoA-6" target="V00eZw-TxfqV2xNfMcoA-43" edge="1">
          <mxGeometry relative="1" as="geometry" />
        </mxCell>
        <mxCell id="V00eZw-TxfqV2xNfMcoA-6" value="&lt;span style=&quot;font-size: 24px;&quot;&gt;n &amp;gt; i&lt;/span&gt;" style="rhombus;whiteSpace=wrap;html=1;" parent="1" vertex="1">
          <mxGeometry x="400" y="290" width="80" height="80" as="geometry" />
        </mxCell>
        <mxCell id="V00eZw-TxfqV2xNfMcoA-37" value="" style="edgeStyle=orthogonalEdgeStyle;rounded=0;orthogonalLoop=1;jettySize=auto;html=1;fontSize=24;endArrow=none;" parent="1" source="V00eZw-TxfqV2xNfMcoA-2" target="V00eZw-TxfqV2xNfMcoA-6" edge="1">
          <mxGeometry relative="1" as="geometry">
            <mxPoint x="440" y="240" as="sourcePoint" />
            <mxPoint x="440" y="350" as="targetPoint" />
          </mxGeometry>
        </mxCell>
        <mxCell id="bmzS2tuC4h1QVGBPtPH4-3" value="" style="edgeStyle=orthogonalEdgeStyle;rounded=0;orthogonalLoop=1;jettySize=auto;html=1;fontSize=24;" edge="1" parent="1" source="V00eZw-TxfqV2xNfMcoA-43" target="bmzS2tuC4h1QVGBPtPH4-2">
          <mxGeometry relative="1" as="geometry" />
        </mxCell>
        <mxCell id="V00eZw-TxfqV2xNfMcoA-43" value="&lt;font style=&quot;font-size: 24px;&quot;&gt;a = nΣ xi * yi&lt;/font&gt;" style="whiteSpace=wrap;html=1;" parent="1" vertex="1">
          <mxGeometry x="370" y="430" width="140" height="60" as="geometry" />
        </mxCell>
        <mxCell id="bmzS2tuC4h1QVGBPtPH4-9" value="" style="edgeStyle=orthogonalEdgeStyle;rounded=0;orthogonalLoop=1;jettySize=auto;html=1;fontSize=24;" edge="1" parent="1" source="bmzS2tuC4h1QVGBPtPH4-2" target="bmzS2tuC4h1QVGBPtPH4-8">
          <mxGeometry relative="1" as="geometry" />
        </mxCell>
        <mxCell id="bmzS2tuC4h1QVGBPtPH4-2" value="&lt;font style=&quot;font-size: 24px;&quot;&gt;b =&amp;nbsp;nΣ xi&amp;nbsp;&lt;/font&gt;" style="whiteSpace=wrap;html=1;" vertex="1" parent="1">
          <mxGeometry x="370" y="510" width="140" height="60" as="geometry" />
        </mxCell>
        <mxCell id="bmzS2tuC4h1QVGBPtPH4-11" value="" style="edgeStyle=orthogonalEdgeStyle;rounded=0;orthogonalLoop=1;jettySize=auto;html=1;fontSize=24;" edge="1" parent="1" source="bmzS2tuC4h1QVGBPtPH4-8" target="bmzS2tuC4h1QVGBPtPH4-10">
          <mxGeometry relative="1" as="geometry" />
        </mxCell>
        <mxCell id="bmzS2tuC4h1QVGBPtPH4-8" value="&lt;font style=&quot;font-size: 24px;&quot;&gt;c =&amp;nbsp;nΣ yi&amp;nbsp;&lt;/font&gt;" style="whiteSpace=wrap;html=1;" vertex="1" parent="1">
          <mxGeometry x="370" y="590" width="140" height="60" as="geometry" />
        </mxCell>
        <mxCell id="bmzS2tuC4h1QVGBPtPH4-15" value="" style="edgeStyle=orthogonalEdgeStyle;rounded=0;orthogonalLoop=1;jettySize=auto;html=1;fontSize=24;" edge="1" parent="1" source="bmzS2tuC4h1QVGBPtPH4-10" target="bmzS2tuC4h1QVGBPtPH4-14">
          <mxGeometry relative="1" as="geometry" />
        </mxCell>
        <mxCell id="bmzS2tuC4h1QVGBPtPH4-10" value="&lt;font style=&quot;font-size: 24px;&quot;&gt;d = b * c&lt;/font&gt;" style="whiteSpace=wrap;html=1;" vertex="1" parent="1">
          <mxGeometry x="340" y="670" width="200" height="60" as="geometry" />
        </mxCell>
        <mxCell id="bmzS2tuC4h1QVGBPtPH4-17" value="" style="edgeStyle=orthogonalEdgeStyle;rounded=0;orthogonalLoop=1;jettySize=auto;html=1;fontSize=24;" edge="1" parent="1" source="bmzS2tuC4h1QVGBPtPH4-14" target="bmzS2tuC4h1QVGBPtPH4-16">
          <mxGeometry relative="1" as="geometry" />
        </mxCell>
        <mxCell id="bmzS2tuC4h1QVGBPtPH4-14" value="&lt;span style=&quot;font-size: 24px;&quot;&gt;numerator&amp;nbsp;&lt;/span&gt;&lt;span style=&quot;font-size: 24px;&quot;&gt;= a - d&lt;/span&gt;" style="whiteSpace=wrap;html=1;" vertex="1" parent="1">
          <mxGeometry x="340" y="750" width="200" height="60" as="geometry" />
        </mxCell>
        <mxCell id="bmzS2tuC4h1QVGBPtPH4-19" value="" style="edgeStyle=orthogonalEdgeStyle;rounded=0;orthogonalLoop=1;jettySize=auto;html=1;fontSize=24;" edge="1" parent="1" source="bmzS2tuC4h1QVGBPtPH4-16" target="bmzS2tuC4h1QVGBPtPH4-18">
          <mxGeometry relative="1" as="geometry" />
        </mxCell>
        <mxCell id="bmzS2tuC4h1QVGBPtPH4-16" value="&lt;font style=&quot;font-size: 24px;&quot;&gt;e = nΣ xi**2&lt;/font&gt;" style="whiteSpace=wrap;html=1;" vertex="1" parent="1">
          <mxGeometry x="370" y="830" width="140" height="60" as="geometry" />
        </mxCell>
        <mxCell id="bmzS2tuC4h1QVGBPtPH4-21" value="" style="edgeStyle=orthogonalEdgeStyle;rounded=0;orthogonalLoop=1;jettySize=auto;html=1;fontSize=24;" edge="1" parent="1" source="bmzS2tuC4h1QVGBPtPH4-18" target="bmzS2tuC4h1QVGBPtPH4-20">
          <mxGeometry relative="1" as="geometry" />
        </mxCell>
        <mxCell id="bmzS2tuC4h1QVGBPtPH4-18" value="&lt;font style=&quot;font-size: 24px;&quot;&gt;f = (nΣ xi)**2&lt;/font&gt;" style="whiteSpace=wrap;html=1;" vertex="1" parent="1">
          <mxGeometry x="360" y="910" width="160" height="60" as="geometry" />
        </mxCell>
        <mxCell id="bmzS2tuC4h1QVGBPtPH4-23" value="" style="edgeStyle=orthogonalEdgeStyle;rounded=0;orthogonalLoop=1;jettySize=auto;html=1;fontSize=24;" edge="1" parent="1" source="bmzS2tuC4h1QVGBPtPH4-20" target="bmzS2tuC4h1QVGBPtPH4-22">
          <mxGeometry relative="1" as="geometry" />
        </mxCell>
        <mxCell id="bmzS2tuC4h1QVGBPtPH4-20" value="&lt;font style=&quot;font-size: 24px;&quot;&gt;g = sqrt(e - f)&lt;/font&gt;" style="whiteSpace=wrap;html=1;" vertex="1" parent="1">
          <mxGeometry x="360" y="990" width="160" height="60" as="geometry" />
        </mxCell>
        <mxCell id="bmzS2tuC4h1QVGBPtPH4-27" value="" style="edgeStyle=orthogonalEdgeStyle;rounded=0;orthogonalLoop=1;jettySize=auto;html=1;fontSize=24;" edge="1" parent="1" source="bmzS2tuC4h1QVGBPtPH4-22" target="bmzS2tuC4h1QVGBPtPH4-26">
          <mxGeometry relative="1" as="geometry" />
        </mxCell>
        <mxCell id="bmzS2tuC4h1QVGBPtPH4-22" value="&lt;span style=&quot;color: rgb(0, 0, 0); font-family: Helvetica; font-size: 24px; font-style: normal; font-variant-ligatures: normal; font-variant-caps: normal; font-weight: 400; letter-spacing: normal; orphans: 2; text-align: center; text-indent: 0px; text-transform: none; widows: 2; word-spacing: 0px; -webkit-text-stroke-width: 0px; background-color: rgb(248, 249, 250); text-decoration-thickness: initial; text-decoration-style: initial; text-decoration-color: initial; float: none; display: inline !important;&quot;&gt;h = nΣ yi**2&lt;/span&gt;&lt;br&gt;" style="whiteSpace=wrap;html=1;" vertex="1" parent="1">
          <mxGeometry x="360" y="1070" width="160" height="60" as="geometry" />
        </mxCell>
        <mxCell id="bmzS2tuC4h1QVGBPtPH4-32" value="" style="edgeStyle=orthogonalEdgeStyle;rounded=0;orthogonalLoop=1;jettySize=auto;html=1;fontSize=24;" edge="1" parent="1" source="bmzS2tuC4h1QVGBPtPH4-26" target="bmzS2tuC4h1QVGBPtPH4-30">
          <mxGeometry relative="1" as="geometry" />
        </mxCell>
        <mxCell id="bmzS2tuC4h1QVGBPtPH4-26" value="&lt;span style=&quot;font-size: 24px;&quot;&gt;j = (nΣ xi)**2&lt;/span&gt;" style="whiteSpace=wrap;html=1;" vertex="1" parent="1">
          <mxGeometry x="360" y="1160" width="160" height="60" as="geometry" />
        </mxCell>
        <mxCell id="bmzS2tuC4h1QVGBPtPH4-30" value="&lt;font style=&quot;font-size: 24px;&quot;&gt;k = sqrt(h - j)&lt;/font&gt;" style="whiteSpace=wrap;html=1;" vertex="1" parent="1">
          <mxGeometry x="360" y="1250" width="160" height="60" as="geometry" />
        </mxCell>
      </root>
    </mxGraphModel>
  </diagram>
</mxfile>
